<svg width="60" height="126" viewBox="0 0 60 126" fill="none" xmlns="http://www.w3.org/2000/svg">
<path opacity="0.2" d="M30.2779 27.4785L7.11138 38.6291L2.82129 17.1856L34.568 2.604H57.7345V121.83H30.2779V27.4785Z" fill="url(#paint0_linear_557_24017)"/>
<path opacity="0.8" d="M57.7343 124.402C56.8763 124.402 55.1603 123.544 55.1603 121.829V5.17591H34.5678L4.53717 18.8998L7.96924 35.1969L28.5617 25.7617H29.4197C30.2777 25.7617 31.9938 26.6194 31.9938 28.3349V122.686C31.9938 123.544 31.1358 125.26 29.4197 125.26C28.5617 125.26 26.8457 124.402 26.8457 122.686V30.9081L7.11122 40.3433C6.2532 40.3433 6.25321 40.3433 5.39519 40.3433C4.53717 40.3433 4.53717 39.4856 4.53717 38.6278L0.24707 18.042C0.24707 17.1843 0.247074 16.3265 1.10509 15.4688L32.8518 0.887207H33.7098H56.8763C57.7343 0.887207 59.4504 1.74494 59.4504 3.46042V122.686C59.4504 123.544 58.5924 124.402 57.7343 124.402Z" fill="#3FA535"/>
<defs>
<linearGradient id="paint0_linear_557_24017" x1="29.9107" y1="122.176" x2="29.9107" y2="2.66576" gradientUnits="userSpaceOnUse">
<stop stop-color="white"/>
<stop offset="1" stop-color="#3FA535"/>
</linearGradient>
</defs>
</svg>
