<svg width="91" height="127" viewBox="0 0 91 127" fill="none" xmlns="http://www.w3.org/2000/svg">
<path opacity="0.2" d="M3.03174 123.535V106.38L18.4761 92.6562C44.2166 69.4972 57.0869 55.7734 57.9449 42.0495C57.9449 32.6144 51.9388 24.8947 38.2105 24.8947C27.9143 24.8947 18.4761 30.0411 12.4699 35.1876L4.74777 15.4595C14.186 8.5976 27.9143 3.45117 44.2166 3.45117C71.6732 3.45117 86.2596 18.8905 86.2596 41.1918C86.2596 60.9198 71.6732 77.2169 54.5129 92.6562L43.3586 100.376H88.8336V123.535H3.03174Z" fill="url(#paint0_linear_557_24022)"/>
<path opacity="0.8" d="M87.9754 126.105H3.03158C2.17356 126.105 0.45752 125.247 0.45752 123.531V106.377C0.45752 105.519 0.457523 105.519 1.31554 104.661L16.7599 90.9372C43.3585 67.7781 54.5127 54.9121 55.3707 42.0459C55.3707 32.6108 49.3646 26.6066 38.2103 26.6066C30.4882 26.6066 21.908 30.0376 14.1858 36.0417C13.3278 36.0417 13.3278 36.8995 12.4698 36.0417C11.6118 36.0417 11.6118 35.184 10.7537 35.184L3.03158 15.4559C3.03158 14.5982 3.03157 13.7405 3.88959 12.8827C15.0438 5.16305 29.6302 0.0166016 44.2165 0.0166016C70.8151 0.0166016 87.9754 15.4559 87.9754 39.4727C87.9754 60.9162 72.5311 77.2133 55.3707 92.6526L48.5066 98.6568H87.9754C88.8335 98.6568 90.5495 99.5146 90.5495 101.23C90.5495 102.088 89.6915 103.803 87.9754 103.803H43.3585C42.5004 103.803 40.7844 102.946 40.7844 101.23C40.7844 100.372 40.7844 100.372 41.6424 99.5146L52.7967 90.0794C71.6731 73.7823 83.6853 58.343 83.6853 40.3304C83.6853 18.8869 68.241 5.16304 44.2165 5.16304C30.4882 5.16304 17.6179 9.45177 7.32167 16.3137L13.3278 32.6108C21.908 26.6066 29.6302 24.0333 38.2103 24.0333C51.9386 24.0333 59.6608 31.753 59.6608 43.7614C59.6608 58.343 46.7905 72.0669 20.192 96.0836L5.60564 107.234V120.958H87.9754C88.8335 120.958 90.5495 121.816 90.5495 123.531C90.5495 124.389 89.6915 126.105 87.9754 126.105Z" fill="#3FA535"/>
<defs>
<linearGradient id="paint0_linear_557_24022" x1="45.7808" y1="123.615" x2="45.7808" y2="2.08136" gradientUnits="userSpaceOnUse">
<stop stop-color="white"/>
<stop offset="1" stop-color="#3FA535"/>
</linearGradient>
</defs>
</svg>
