<svg width="89" height="131" viewBox="0 0 89 131" fill="none" xmlns="http://www.w3.org/2000/svg">
<path opacity="0.2" d="M7.96903 98.7926C13.1171 101.366 24.2714 106.512 35.4256 106.512C50.012 106.512 57.7341 99.6504 57.7341 90.2152C57.7341 78.2068 45.7219 73.0604 33.7096 73.0604H22.5554V52.4746H33.7096C43.1478 52.4746 55.1601 49.0436 55.1601 38.7508C55.1601 31.8888 49.1539 25.8846 37.1417 25.8846C27.7035 25.8846 17.4072 30.1733 12.2591 32.7465L6.25298 12.1608C13.1171 7.87208 27.7035 2.72559 43.1478 2.72559C68.8884 2.72559 82.6167 16.4494 82.6167 32.7465C82.6167 45.6126 75.7525 55.0478 60.3082 60.1943C74.8945 62.7675 86.0487 73.9181 86.0487 89.3575C86.0487 110.801 67.1723 126.24 37.1417 126.24C21.6973 126.24 8.82704 121.952 1.96289 117.663L7.96903 98.7926Z" fill="url(#paint0_linear_557_24027)"/>
<path opacity="0.8" d="M37.9999 130.53C20.8395 130.53 7.96924 126.241 1.10509 121.953C0.247074 121.095 0.24707 120.237 0.24707 119.379L6.25319 98.7936C6.25319 97.9358 7.11121 97.9358 7.11121 97.078C7.96923 97.078 7.96924 97.078 8.82726 97.078C11.4013 97.9358 23.4136 103.94 35.4258 103.94C47.4381 103.94 55.1603 98.7936 55.1603 90.2161C55.1603 79.0655 43.148 75.6345 32.8518 75.6345H21.6975C20.8395 75.6345 19.1235 74.7768 19.1235 73.0613V52.4755C19.1235 51.6178 19.9815 49.9023 21.6975 49.9023H32.8518C34.5678 49.9023 51.7282 49.0446 51.7282 37.8939C51.7282 31.032 45.7221 27.601 36.2838 27.601C26.8456 27.601 16.5494 31.8897 12.2593 34.463C11.4013 34.463 11.4013 34.463 10.5433 34.463C9.68527 34.463 9.68528 33.6052 9.68528 32.7474L3.67914 12.1617C3.67914 11.304 3.67915 10.4462 4.53716 9.58846C11.4013 5.29975 25.9876 0.15332 42.29 0.15332C71.4626 0.15332 84.3329 16.4504 84.3329 31.8897C84.3329 43.8981 78.3268 53.3333 66.3145 59.3375C80.0428 63.6262 88.623 75.6346 88.623 89.3584C88.623 91.9316 88.623 94.5048 87.765 97.078C87.765 97.9358 86.0489 98.7936 85.1909 98.7936C84.3329 98.7936 83.4749 97.078 83.4749 96.2203C84.3329 93.6471 84.3329 91.9316 84.3329 89.3584C84.3329 73.9191 72.3206 64.4839 60.3084 62.7684C59.4504 62.7684 58.5923 61.9107 58.5923 61.0529C58.5923 60.1952 59.4504 59.3375 60.3084 59.3375C74.0367 55.0488 80.9008 45.6136 80.9008 33.6052C80.9008 17.3082 65.4565 6.15748 43.148 6.15748C28.5617 6.15748 15.6914 10.4462 8.82726 13.8772L13.1174 30.1743C18.2655 27.601 27.7037 24.17 37.1419 24.17C51.7282 24.17 56.8763 31.8897 56.8763 38.7517C56.8763 49.9023 44.006 54.191 33.7098 55.0488H25.1296V70.4881H34.5678C47.4381 70.4881 61.1664 76.4923 61.1664 89.3584C61.1664 100.509 51.7282 107.371 37.1419 107.371C25.9876 107.371 15.6914 103.082 10.5433 100.509L6.25319 117.664C12.2593 121.095 24.2716 125.384 38.8579 125.384C39.7159 125.384 41.432 126.241 41.432 127.957C40.5739 129.672 39.7159 130.53 37.9999 130.53Z" fill="#3FA535"/>
<defs>
<linearGradient id="paint0_linear_557_24027" x1="44.9007" y1="128.077" x2="44.9007" y2="4.52083" gradientUnits="userSpaceOnUse">
<stop stop-color="white"/>
<stop offset="1" stop-color="#3FA535"/>
</linearGradient>
</defs>
</svg>
