<svg width="99" height="125" viewBox="0 0 99 125" fill="none" xmlns="http://www.w3.org/2000/svg">
<g opacity="0.8">
<path opacity="0.2" d="M55.965 121.83V93.5246H2.76782V75.512L48.2428 2.604H82.5636V72.9388H97.1499V93.5246H82.5636V121.83H55.965ZM55.965 72.9388V46.3488C55.965 39.4869 55.965 31.7672 56.823 24.0475H55.965C51.6749 31.7672 49.1008 38.6291 44.8107 46.3488L28.5084 72.081H55.965V72.9388Z" fill="url(#paint0_linear_557_24031)"/>
<path opacity="0.8" d="M82.5632 124.397H55.9646C55.1066 124.397 53.3905 123.54 53.3905 121.824V95.2342H2.76744C1.90942 95.2342 0.193359 94.3764 0.193359 92.6609V74.6484V73.7906L45.6684 0.882647C45.6684 0.0249056 46.5264 0.0249023 47.3844 0.0249023H81.7052C82.5632 0.0249023 84.2793 0.882637 84.2793 2.59812V70.3597H96.2915C97.1495 70.3597 98.8656 71.2174 98.8656 72.9329V93.5187C98.8656 94.3764 98.0075 96.0919 96.2915 96.0919H81.7052C80.8472 96.0919 79.1311 95.2342 79.1311 93.5187C79.1311 92.6609 79.9891 90.9455 81.7052 90.9455H93.7175V74.6484H81.7052C80.8472 74.6484 79.1311 73.7906 79.1311 72.0751V4.31361H48.2424L3.62545 75.5061V90.9455H54.2486C55.1066 90.9455 56.8226 91.8032 56.8226 93.5187V120.109H80.8472C81.7052 120.109 83.4212 120.966 83.4212 122.682C83.4212 124.397 83.4212 124.397 82.5632 124.397ZM55.9646 74.6484H29.366C28.508 74.6484 26.7919 73.7906 26.7919 72.0751V71.2174L43.0943 45.4852C45.6684 41.1965 47.3844 36.05 49.9585 31.7613C51.6745 29.1881 52.5325 26.6149 54.2486 23.1839C54.2486 22.3262 55.1066 22.3262 55.9646 22.3262H56.8226C57.6806 22.3262 57.6807 22.3262 58.5387 23.1839C59.3967 24.0417 59.3967 24.0416 59.3967 24.8994C58.5387 33.4768 58.5387 40.3387 58.5387 47.2007V73.7906C57.6807 73.7906 56.8226 74.6484 55.9646 74.6484ZM32.7981 70.3597H54.2486V46.3429C54.2486 42.0542 54.2486 37.7655 54.2486 32.6191C51.6745 37.7655 49.9585 42.0542 47.3844 46.3429L32.7981 70.3597Z" fill="#3FA535"/>
</g>
<defs>
<linearGradient id="paint0_linear_557_24031" x1="49.8551" y1="122.177" x2="49.8551" y2="2.66576" gradientUnits="userSpaceOnUse">
<stop stop-color="white"/>
<stop offset="1" stop-color="#3FA535"/>
</linearGradient>
</defs>
</svg>
