<svg width="89" height="127" viewBox="0 0 89 127" fill="none" xmlns="http://www.w3.org/2000/svg">
<g opacity="0.8">
<path opacity="0.2" d="M82.9264 24.8902H36.5934L34.0193 42.9027C36.5934 42.9027 39.1674 42.9027 41.7415 42.9027C52.8957 42.9027 64.908 45.4759 73.4882 51.4801C82.9264 57.4843 88.0745 67.7772 88.0745 81.501C88.0745 90.9362 84.6424 100.371 77.7783 107.233C69.1981 116.668 54.6118 123.53 36.5934 123.53C22.007 123.53 9.99477 120.099 3.13062 116.668L8.27878 96.0826C13.4269 98.6559 24.5811 102.087 35.7354 102.087C47.7476 102.087 59.7599 96.9404 59.7599 84.0743C59.7599 72.0659 50.3217 64.3462 26.2972 64.3462C19.433 64.3462 15.1429 64.3462 9.99479 65.204L17.717 2.58887H83.7844V24.8902H82.9264Z" fill="url(#paint0_linear_557_24035)"/>
<path opacity="0.8" d="M35.7363 126.105C20.292 126.105 8.27971 122.674 1.41556 119.243C0.557541 118.385 -0.300465 117.527 0.557554 116.669L5.70565 96.0836C5.70565 95.2259 6.56366 95.2259 6.56366 94.3681C7.42168 94.3681 7.42172 94.3681 8.27974 94.3681C14.2859 96.9414 24.5821 100.372 34.0203 100.372C45.1745 100.372 55.4708 95.2259 55.4708 84.0752C55.4708 72.0669 45.1745 66.0627 23.724 66.0627C17.7179 66.0627 13.4279 66.0627 8.27974 66.9204C7.42172 66.9204 6.56366 66.9204 6.56366 66.0627C5.70564 65.2049 5.70565 65.2049 5.70565 64.3472L13.4278 1.73209C13.4278 0.874349 14.2858 0.0166016 15.1438 0.0166016H81.2113C82.0694 0.0166016 83.7854 0.874336 83.7854 2.58982V25.7488C83.7854 26.6066 82.9274 27.4643 81.2113 27.4643H36.5943L34.8783 41.1882C36.5943 41.1882 38.3104 41.1882 40.0264 41.1882C52.8967 41.1882 64.909 44.6192 72.6312 50.6233C82.9274 57.4853 88.0755 68.6359 88.0755 82.3597C88.0755 90.0794 86.3594 96.9414 82.0694 102.946C81.2113 103.803 80.3533 104.661 79.4953 103.803C78.6372 102.946 77.7792 102.088 78.6373 101.23C82.0693 95.2259 83.7854 89.2217 83.7854 82.3597C83.7854 69.4936 79.4953 60.0585 70.0571 54.0543C62.3349 48.9078 52.0387 45.4769 40.0264 45.4769C37.4524 45.4769 34.8783 45.4769 32.3042 45.4769C31.4462 45.4769 30.5882 45.4769 30.5882 44.6192C29.7302 43.7614 29.7302 43.7614 29.7302 42.9037L32.3042 24.8911C32.3042 24.0334 33.1623 23.1756 34.0203 23.1756H78.6373V4.30531H18.5759L10.8538 62.6317C15.1438 61.774 19.4339 61.774 24.582 61.774C48.6066 61.774 60.6189 69.4936 60.6189 84.0752C60.6189 97.7991 46.8906 104.661 34.8783 104.661C24.5821 104.661 15.1439 102.088 9.13774 99.5146L4.84765 116.669C10.8538 119.243 22.008 122.674 35.7363 122.674C36.5943 122.674 38.3104 123.531 38.3104 125.247C38.3104 124.389 37.4524 126.105 35.7363 126.105Z" fill="#3FA535"/>
</g>
<defs>
<linearGradient id="paint0_linear_557_24035" x1="45.0629" y1="123.61" x2="45.0629" y2="2.07765" gradientUnits="userSpaceOnUse">
<stop stop-color="white"/>
<stop offset="1" stop-color="#3FA535"/>
</linearGradient>
</defs>
</svg>
