<svg width="95" height="128" viewBox="0 0 95 128" fill="none" xmlns="http://www.w3.org/2000/svg">
<g opacity="0.8">
<path opacity="0.2" d="M80.705 23.8841C77.273 23.8841 73.8409 23.8841 69.5508 23.8841C44.6682 25.5996 33.514 38.4657 30.94 52.1896H31.798C37.8042 46.1854 46.3843 42.7544 57.5386 42.7544C77.273 42.7544 94.4333 57.336 94.4333 81.3528C94.4333 105.37 76.4149 124.24 50.6744 124.24C18.9277 124.24 3.4834 100.223 3.4834 71.9176C3.4834 49.6164 12.0636 30.7461 24.9339 18.7377C36.9461 7.58708 52.3904 1.58284 71.2669 0.725098C76.415 0.725098 79.847 0.725098 82.4211 0.725098V23.8841H80.705ZM65.2607 83.926C65.2607 72.7754 59.2546 63.3402 47.2423 63.3402C39.5201 63.3402 33.514 67.6289 30.94 73.6331C30.0819 75.3486 30.0819 77.0641 30.0819 80.495C30.94 93.3612 36.9461 104.512 49.8164 104.512C59.2546 105.37 65.2607 95.9344 65.2607 83.926Z" fill="url(#paint0_linear_557_24039)"/>
<path opacity="0.8" d="M49.8171 127.672C19.7865 127.672 0.052002 106.228 0.052002 73.6341C0.052002 51.3328 7.77417 31.6048 21.5025 18.7387C33.5147 7.58805 49.8171 1.58382 68.6935 0.726074C73.8416 0.726074 77.2737 0.726074 79.8477 0.726074C80.7058 0.726074 81.5638 1.58385 81.5638 2.4416V23.8851C81.5638 24.7429 81.5638 24.7428 80.7057 25.6006C79.8477 25.6006 79.8478 26.4583 78.9897 26.4583C75.5577 26.4583 72.9836 26.4583 68.6935 26.4583C47.243 28.1738 37.8048 37.6089 33.5147 47.0441C39.5209 42.7554 46.385 41.0399 54.9652 41.0399C78.1317 41.0399 94.434 58.1947 94.434 82.2115C94.434 87.3579 93.576 91.6467 92.718 95.9354C92.718 96.7931 91.002 97.6508 90.1439 97.6508C89.2859 97.6508 88.4279 95.9353 88.4279 95.0776C89.2859 90.7889 90.1439 86.5002 90.1439 82.2115C90.1439 60.7679 75.5576 45.3286 54.9652 45.3286C44.669 45.3286 36.9468 47.9019 30.9407 53.9061C30.9407 53.9061 30.0827 54.7638 29.2246 54.7638H28.3666C27.5086 54.7638 27.5086 54.7638 26.6506 53.9061C26.6506 53.0483 25.7925 53.0483 26.6506 52.1905C29.2246 41.8976 36.9468 23.8851 67.8355 22.1696C71.2675 22.1696 73.8416 21.3119 76.4156 21.3119V4.15705C73.8416 4.15705 71.2675 4.15705 67.8355 4.15705C49.8171 5.01479 34.3728 11.019 23.2185 21.3119C10.3483 33.3202 2.62608 52.1905 2.62608 72.7763C2.62608 96.7931 14.6383 122.525 48.101 122.525C48.959 122.525 50.6751 123.383 50.6751 125.099C50.6751 126.814 50.6751 127.672 49.8171 127.672ZM48.9591 107.086C36.9468 107.086 28.3666 96.7931 27.5086 81.3537C27.5086 77.9228 27.5086 75.3495 29.2246 73.6341C32.6567 66.7721 39.5208 61.6257 48.101 61.6257C60.1133 61.6257 67.8355 71.0609 67.8355 84.7847C66.9774 97.6508 60.1133 107.086 48.9591 107.086ZM31.7987 81.3537C32.6567 91.6466 36.9468 103.655 48.9591 103.655C57.5393 103.655 62.6874 95.9353 62.6874 84.7847C62.6874 76.2073 58.3973 65.9144 47.243 65.9144C41.2369 65.9144 35.2308 69.3454 32.6567 75.3496C31.7987 76.2073 31.7987 77.9228 31.7987 81.3537Z" fill="#3FA535"/>
</g>
<defs>
<linearGradient id="paint0_linear_557_24039" x1="47.7494" y1="125.83" x2="47.7494" y2="2.52121" gradientUnits="userSpaceOnUse">
<stop stop-color="white"/>
<stop offset="1" stop-color="#3FA535"/>
</linearGradient>
</defs>
</svg>
