<svg width="128" height="128" viewBox="0 0 128 128" fill="none" xmlns="http://www.w3.org/2000/svg">
<g filter="url(#filter0_d_557_19469)">
<path d="M14 10H58C88.9279 10 114 35.0721 114 66V110H70C39.0721 110 14 84.9279 14 54V10Z" fill="url(#paint0_linear_557_19469)" shape-rendering="crispEdges"/>
<path d="M58 10.5C88.6518 10.5 113.5 35.3482 113.5 66V109.5H70C39.3482 109.5 14.5 84.6518 14.5 54V10.5H58Z" stroke="white" shape-rendering="crispEdges"/>
<path fill-rule="evenodd" clip-rule="evenodd" d="M50.3917 37.8146C50.7763 37.3018 51.3798 37 52.0208 37H76.4583C77.0993 37 77.7029 37.3018 78.0875 37.8146L84.1845 45.9439C84.4477 46.287 84.6042 46.7164 84.6042 47.1823V75.6927C84.6042 77.313 83.9605 78.867 82.8148 80.0127C81.669 81.1584 80.1151 81.8021 78.4948 81.8021H49.9844C48.3641 81.8021 46.8101 81.1584 45.6644 80.0127C44.5187 78.867 43.875 77.313 43.875 75.6927V47.1823C43.875 46.7164 44.0314 46.2871 44.2946 45.944L50.3917 37.8146ZM75.4401 41.0729L78.4948 45.1458H49.9844L53.0391 41.0729H75.4401ZM56.0938 53.2917C57.2185 53.2917 58.1302 54.2034 58.1302 55.3281C58.1302 56.9484 58.7739 58.5024 59.9196 59.6481C61.0653 60.7938 62.6193 61.4375 64.2396 61.4375C65.8599 61.4375 67.4138 60.7938 68.5596 59.6481C69.7053 58.5024 70.349 56.9484 70.349 55.3281C70.349 54.2034 71.2607 53.2917 72.3854 53.2917C73.5101 53.2917 74.4219 54.2034 74.4219 55.3281C74.4219 58.0286 73.3491 60.6185 71.4396 62.5281C69.53 64.4376 66.9401 65.5104 64.2396 65.5104C61.5391 65.5104 58.9492 64.4376 57.0396 62.5281C55.1301 60.6185 54.0573 58.0286 54.0573 55.3281C54.0573 54.2034 54.969 53.2917 56.0938 53.2917Z" fill="white"/>
</g>
<defs>
<filter id="filter0_d_557_19469" x="0.1" y="0.1" width="127.8" height="127.8" filterUnits="userSpaceOnUse" color-interpolation-filters="sRGB">
<feFlood flood-opacity="0" result="BackgroundImageFix"/>
<feColorMatrix in="SourceAlpha" type="matrix" values="0 0 0 0 0 0 0 0 0 0 0 0 0 0 0 0 0 0 127 0" result="hardAlpha"/>
<feOffset dy="4"/>
<feGaussianBlur stdDeviation="6.95"/>
<feComposite in2="hardAlpha" operator="out"/>
<feColorMatrix type="matrix" values="0 0 0 0 0.247059 0 0 0 0 0.647059 0 0 0 0 0.207843 0 0 0 1 0"/>
<feBlend mode="normal" in2="BackgroundImageFix" result="effect1_dropShadow_557_19469"/>
<feBlend mode="normal" in="SourceGraphic" in2="effect1_dropShadow_557_19469" result="shape"/>
</filter>
<linearGradient id="paint0_linear_557_19469" x1="30.5" y1="26.5" x2="114" y2="110" gradientUnits="userSpaceOnUse">
<stop stop-color="white"/>
<stop offset="1" stop-color="#3FA535" stop-opacity="0.25"/>
</linearGradient>
</defs>
</svg>
