<svg width="42" height="42" viewBox="0 0 42 42" fill="none" xmlns="http://www.w3.org/2000/svg">
<path d="M6.5 26L9.5 40.5L11 41.5H30.5L31.5 40.5L35 25.5H34L35.5 22V19.5L33 16.5V14L31.5 11.5L27.5 10L25.5 8.5V6L23 4.5H21L19.5 7L17.5 4.5L13.5 8.5L13 12.5L11.5 14L10 16.5L9.5 19.5L7.5 21L6.5 23L7.5 25.5L6.5 26Z" fill="#3FA535" fill-opacity="0.1"/>
<path fill-rule="evenodd" clip-rule="evenodd" d="M35.2793 24.6738H35.2492C35.8894 23.8345 36.4515 22.708 36.4293 21.3531C36.3993 19.5218 35.3046 17.7301 33.1756 16.0278C33.4418 15.2286 33.4983 14.4405 33.3421 13.6685C32.7655 10.8195 29.8462 9.56439 26.9873 8.85695L26.5255 10.1473C27.5124 10.3884 28.3565 10.659 29.0666 10.9643C29.2366 11.2217 29.2133 11.4066 29.1662 11.5544C28.9972 12.0839 27.9433 13.5399 21.8212 15.6175L22.2585 16.906C24.4528 16.1613 26.233 15.4177 27.5495 14.6957C29.2156 13.782 30.1685 12.8897 30.4626 11.9681C30.4843 11.9001 30.5016 11.8323 30.5161 11.7643C31.3526 12.3718 31.8365 13.0881 32.0086 13.9386C32.2589 15.175 31.6969 16.5402 30.3383 17.9961L31.3331 18.9245C31.8413 18.3799 32.2569 17.8378 32.5807 17.2996C34.2099 18.6672 35.0471 20.0374 35.069 21.3756C35.0932 22.8604 34.1128 24.0291 33.4104 24.6738H22.9785C24.5082 23.8745 26.4896 22.7545 28.3567 21.4446L27.5752 20.3308C24.3344 22.6045 20.6237 24.3402 19.8929 24.6738H8.44905C7.77297 23.9438 7.49756 22.9361 7.74738 22.0415C8.03023 21.0287 8.9437 20.3195 10.3195 20.0443C11.6118 19.7859 15.0289 19.0664 18.8405 17.9704L18.4644 16.6627C15.0669 17.6397 11.9876 18.3134 10.4825 18.6228C10.2745 17.503 10.1371 15.0787 12.5179 14.0584C13.4367 13.6646 15.2987 13.3255 17.2701 12.9665L17.9287 12.8463L17.6831 11.5081L17.0264 11.628C15.7534 11.8598 14.5246 12.0836 13.522 12.3288C13.6145 10.7434 14.286 7.94352 17.5616 5.8525C17.8074 6.21971 17.9161 6.39523 18.0975 6.66737L18.7778 5.30668C18.5882 4.94383 18.5522 4.89848 18.4203 4.62126C18.3394 4.45117 18.1916 4.32227 18.0121 4.26521C17.8325 4.20825 17.6373 4.22811 17.4731 4.32028C15.4392 5.46126 13.9541 6.98133 13.0591 8.8383C12.2936 10.4264 12.1521 11.8895 12.1495 12.7403C12.092 12.7626 12.035 12.7849 11.9818 12.8078C10.2208 13.5625 9.20532 14.9993 9.04494 16.9628C8.98089 17.7476 9.06952 18.4638 9.16413 18.9553C7.76271 19.4575 6.7881 20.4175 6.43668 21.6756C6.15928 22.6687 6.30242 23.7462 6.794 24.6739H6.25117C6.04426 24.6739 5.84859 24.7681 5.71942 24.9298C5.59033 25.0915 5.54189 25.3032 5.5877 25.505L8.95939 40.3407C9.18146 41.3177 10.0362 42 11.0382 42H30.4921C31.4939 42 32.3488 41.3177 32.5709 40.3407L35.9426 25.505C35.9884 25.3032 35.9399 25.0915 35.8108 24.9298C35.6819 24.768 35.4863 24.6738 35.2793 24.6738ZM10.2864 40.0391C10.3668 40.3924 10.6759 40.6392 11.0383 40.6392H11.8193C11.7855 40.5318 11.7576 40.4202 11.7378 40.3041L9.30555 26.0345H7.1036L10.2864 40.0391ZM13.0793 40.0755C13.142 40.4433 13.3465 40.6392 13.4701 40.6392H14.5824C14.5545 40.5208 14.533 40.3964 14.5182 40.2667L12.9009 26.0345H10.6859L13.0793 40.0755ZM15.8702 40.113C15.9022 40.3942 15.9775 40.5622 16.0248 40.6392H17.3383C17.3215 40.5111 17.3088 40.3743 17.3005 40.2284L16.494 26.0345H14.2703L15.8702 40.113ZM18.7172 40.6392H20.0849V26.0345H20.0434C20.0428 26.0345 20.0422 26.0345 20.0417 26.0346C20.0411 26.0346 20.0405 26.0347 20.0399 26.0347C20.0391 26.0347 20.0383 26.0345 20.0375 26.0345H17.8568L18.6589 40.1513C18.6709 40.3617 18.6938 40.5227 18.7172 40.6392ZM22.8134 40.6392C22.8367 40.5227 22.8596 40.3617 22.8716 40.1513L23.6737 26.0345H21.4456V40.6392H22.8134ZM24.1922 40.6392H25.5058C25.5533 40.5622 25.6285 40.3942 25.6604 40.113L27.2603 26.0345H25.0366L24.23 40.2284C24.2218 40.3743 24.2092 40.5112 24.1922 40.6392ZM26.9481 40.6392H28.0606C28.1841 40.6392 28.3887 40.4433 28.4513 40.0755L30.8446 26.0345H28.6297L27.0125 40.2667C26.9977 40.3964 26.9761 40.5208 26.9481 40.6392ZM30.4922 40.6392C30.8546 40.6392 31.1638 40.3925 31.2441 40.0391L34.427 26.0345H33.6708C33.67 26.0345 33.6694 26.0346 33.6687 26.0346C33.6683 26.0346 33.668 26.0346 33.6677 26.0345C33.6675 26.0345 33.6672 26.0345 33.6669 26.0345H32.225L29.7926 40.3041C29.7728 40.4202 29.745 40.5318 29.7112 40.6392H30.4922Z" fill="#3FA535"/>
<path fill-rule="evenodd" clip-rule="evenodd" d="M26.3584 8.70931C26.4666 8.34973 26.5255 7.96892 26.5255 7.5745C26.5255 6.08191 25.6923 4.78037 24.4668 4.11C25.6861 1.63437 27.3118 1.36069 27.9658 1.36069C28.799 1.36069 29.3228 1.53903 29.6259 1.69986C29.8616 1.82496 30.1474 1.80482 30.3598 1.64335C30.7554 1.34264 30.7045 0.734772 30.2658 0.501368C29.7777 0.241568 29.0361 0 27.9658 0C26.6614 0 25.4381 0.600154 24.428 1.73551C24.0879 2.11778 23.5964 2.76211 23.1672 3.6725C22.9754 3.64374 22.7792 3.6285 22.5795 3.6285C21.0997 3.6285 19.8083 4.44773 19.133 5.65611C18.9856 5.95117 18.6851 6.65367 18.6626 7.10325C18.6441 7.258 18.6335 7.41502 18.6335 7.57468C18.6335 9.75051 20.4037 11.5207 22.5795 11.5207C23.8581 11.5207 24.9962 10.9089 25.7177 9.96323C25.8275 9.8177 26.1093 9.36317 26.3584 8.70931ZM25.1648 7.5745C25.1648 6.14895 24.0051 4.98919 22.5795 4.98919C21.1541 4.98919 19.9942 6.14895 19.9942 7.5745C19.9942 9.00005 21.154 10.1598 22.5795 10.1598C24.0051 10.1598 25.1648 9.00005 25.1648 7.5745Z" fill="#3FA535"/>
</svg>
