<svg width="1408" height="110" viewBox="0 0 1408 110" fill="none" xmlns="http://www.w3.org/2000/svg">
<path d="M1408 1.68835V92.5975H1403.95V57.7923H1397.83L1389.86 92.5975H1385.24L1393.43 57.013C1391.32 55.5412 1389.57 52.2511 1388.19 47.1429C1386.81 42.0347 1386.12 36.2771 1386.12 29.8702C1386.12 22.078 1387.05 15.4546 1388.89 10C1390.77 4.45892 1393.03 1.68835 1395.67 1.68835H1408ZM1395.67 46.8832H1403.95V12.9871H1395.67C1394.18 12.9871 1392.89 14.6321 1391.8 17.9221C1390.71 21.2122 1390.17 25.1949 1390.17 29.8702C1390.17 34.5455 1390.71 38.5715 1391.8 41.9481C1392.89 45.2381 1394.18 46.8832 1395.67 46.8832Z" fill="white"/>
<path d="M1383.22 1.55835L1380.36 33.1168H1377.06L1378.82 1.55835H1383.22Z" fill="white"/>
<path d="M1369.28 45.4546C1370.69 47.4459 1371.8 50.3031 1372.62 54.026C1373.48 57.749 1373.9 62.0347 1373.9 66.8832C1373.9 74.1559 1373.04 80.2598 1371.3 85.1949C1369.57 90.1299 1367.46 92.5975 1364.97 92.5975H1351.67V1.68835H1364C1366.4 1.68835 1368.44 4.06931 1370.12 8.83121C1371.79 13.5931 1372.62 19.4806 1372.62 26.4936C1372.62 34.5455 1371.51 40.8659 1369.28 45.4546ZM1364 12.9871H1355.76V40.7793H1364C1365.29 40.7793 1366.37 39.4373 1367.25 36.7533C1368.13 34.0693 1368.57 30.7793 1368.57 26.8832C1368.57 23.0736 1368.12 19.8269 1367.21 17.1429C1366.33 14.3723 1365.26 12.9871 1364 12.9871ZM1364.97 81.2988C1366.34 81.2988 1367.5 79.8702 1368.44 77.013C1369.38 74.1559 1369.85 70.6494 1369.85 66.4936C1369.85 62.4243 1369.37 58.9611 1368.4 56.1039C1367.46 53.2468 1366.32 51.8182 1364.97 51.8182H1355.76V81.2988H1364.97Z" fill="white"/>
<path d="M1342.08 80.5195C1339 89.697 1335.23 94.2857 1330.77 94.2857C1326.31 94.2857 1322.54 89.697 1319.46 80.5195C1316.37 71.342 1314.83 60.2165 1314.83 47.1429C1314.83 33.9827 1316.37 22.8571 1319.46 13.7662C1322.54 4.58874 1326.31 0 1330.77 0C1335.23 0 1339 4.58874 1342.08 13.7662C1345.19 22.8571 1346.75 33.9827 1346.75 47.1429C1346.75 60.2165 1345.19 71.342 1342.08 80.5195ZM1322.27 72.3377C1324.56 79.0909 1327.39 82.4675 1330.77 82.4675C1334.14 82.4675 1336.96 79.0909 1339.22 72.3377C1341.51 65.4978 1342.65 57.0996 1342.65 47.1429C1342.65 37.0996 1341.51 28.7013 1339.22 21.9481C1336.96 15.1082 1334.14 11.6883 1330.77 11.6883C1327.39 11.6883 1324.56 15.1082 1322.27 21.9481C1320.01 28.7013 1318.88 37.0996 1318.88 47.1429C1318.88 57.0996 1320.01 65.4978 1322.27 72.3377Z" fill="white"/>
<path d="M1301.89 1.68835C1304.74 1.68835 1307.1 4.50221 1308.98 10.1299C1310.89 15.671 1311.84 22.5974 1311.84 30.9091C1311.84 39.1342 1310.89 46.0607 1308.98 51.6884C1307.1 57.3161 1304.74 60.1299 1301.89 60.1299H1294.81V92.5975H1290.71V1.68835H1301.89ZM1301.89 48.8312C1303.6 48.8312 1305 47.1429 1306.12 43.7663C1307.23 40.3031 1307.79 36.0174 1307.79 30.9091C1307.79 25.7143 1307.23 21.4286 1306.12 18.052C1305 14.6754 1303.6 12.9871 1301.89 12.9871H1294.81V48.8312H1301.89Z" fill="white"/>
<path d="M1281.12 80.5195C1278.04 89.697 1274.27 94.2857 1269.81 94.2857C1265.35 94.2857 1261.58 89.697 1258.5 80.5195C1255.42 71.342 1253.87 60.2165 1253.87 47.1429C1253.87 33.9827 1255.42 22.8571 1258.5 13.7662C1261.58 4.58874 1265.35 0 1269.81 0C1274.27 0 1278.04 4.58874 1281.12 13.7662C1284.23 22.8571 1285.79 33.9827 1285.79 47.1429C1285.79 60.2165 1284.23 71.342 1281.12 80.5195ZM1261.31 72.3377C1263.6 79.0909 1266.44 82.4675 1269.81 82.4675C1273.19 82.4675 1276 79.0909 1278.26 72.3377C1280.55 65.4978 1281.7 57.0996 1281.7 47.1429C1281.7 37.0996 1280.55 28.7013 1278.26 21.9481C1276 15.1082 1273.19 11.6883 1269.81 11.6883C1266.44 11.6883 1263.6 15.1082 1261.31 21.9481C1259.05 28.7013 1257.92 37.0996 1257.92 47.1429C1257.92 57.0996 1259.05 65.4978 1261.31 72.3377Z" fill="white"/>
<path d="M1247.95 81.1689H1251.25V110H1247.16V92.5974H1226.82V110H1222.73V81.1689H1225.41C1227.32 74.1559 1228.27 63.5065 1228.27 49.2208V1.68835H1247.95V81.1689ZM1230.03 81.1689H1243.86V12.9871H1232.37V49.4806C1232.37 63.2468 1231.59 73.8096 1230.03 81.1689Z" fill="white"/>
<path d="M1215.83 45.5844C1217.42 47.5758 1218.65 50.4762 1219.53 54.2857C1220.41 58.0952 1220.85 62.5974 1220.85 67.7922C1220.85 75.5844 1219.85 81.9481 1217.86 86.8831C1215.89 91.8182 1213.28 94.2857 1210.02 94.2857C1207.06 94.2857 1204.66 92.3377 1202.84 88.4416C1201.05 84.5455 1199.79 79.5238 1199.06 73.3766L1202.54 67.5325C1203.45 77.7489 1205.94 82.8571 1210.02 82.8571C1212.16 82.8571 1213.82 81.4719 1214.99 78.7013C1216.17 75.8442 1216.76 72.0779 1216.76 67.4026C1216.76 62.7273 1216.2 58.961 1215.08 56.1039C1214 53.2468 1212.47 51.8182 1210.5 51.8182H1206.89V40.7792H1209.49C1211.37 40.7792 1212.87 39.4372 1213.98 36.7533C1215.1 33.9827 1215.65 30.3896 1215.65 25.974C1215.65 21.645 1215.13 18.1385 1214.07 15.4545C1213.04 12.684 1211.6 11.2987 1209.76 11.2987C1206.35 11.2987 1204.08 15.7576 1202.93 24.6753L1199.5 18.8312C1201.35 6.27706 1204.77 0 1209.76 0C1212.72 0 1215.11 2.42425 1216.93 7.27273C1218.78 12.1212 1219.7 18.2684 1219.7 25.7143C1219.7 34.3723 1218.41 40.9957 1215.83 45.5844Z" fill="white"/>
<path d="M1180.27 80.5195C1177.19 89.697 1173.42 94.2857 1168.96 94.2857C1164.5 94.2857 1160.72 89.697 1157.64 80.5195C1154.56 71.342 1153.02 60.2165 1153.02 47.1429C1153.02 33.9827 1154.56 22.8571 1157.64 13.7662C1160.72 4.58874 1164.5 0 1168.96 0C1173.42 0 1177.19 4.58874 1180.27 13.7662C1183.38 22.8571 1184.94 33.9827 1184.94 47.1429C1184.94 60.2165 1183.38 71.342 1180.27 80.5195ZM1160.46 72.3377C1162.75 79.0909 1165.58 82.4675 1168.96 82.4675C1172.33 82.4675 1175.15 79.0909 1177.41 72.3377C1179.7 65.4978 1180.84 57.0996 1180.84 47.1429C1180.84 37.0996 1179.7 28.7013 1177.41 21.9481C1175.15 15.1082 1172.33 11.6883 1168.96 11.6883C1165.58 11.6883 1162.75 15.1082 1160.46 21.9481C1158.2 28.7013 1157.07 37.0996 1157.07 47.1429C1157.07 57.0996 1158.2 65.4978 1160.46 72.3377Z" fill="white"/>
<path d="M1152.69 1.68835V13.1169H1139.48V92.5975H1135.39V1.68835H1152.69Z" fill="white"/>
<path d="M1125.8 80.5195C1122.72 89.697 1118.95 94.2857 1114.49 94.2857C1110.03 94.2857 1106.26 89.697 1103.18 80.5195C1100.09 71.342 1098.55 60.2165 1098.55 47.1429C1098.55 33.9827 1100.09 22.8571 1103.18 13.7662C1106.26 4.58874 1110.03 0 1114.49 0C1118.95 0 1122.72 4.58874 1125.8 13.7662C1128.91 22.8571 1130.47 33.9827 1130.47 47.1429C1130.47 60.2165 1128.91 71.342 1125.8 80.5195ZM1105.99 72.3377C1108.28 79.0909 1111.11 82.4675 1114.49 82.4675C1117.86 82.4675 1120.68 79.0909 1122.94 72.3377C1125.23 65.4978 1126.37 57.0996 1126.37 47.1429C1126.37 37.0996 1125.23 28.7013 1122.94 21.9481C1120.68 15.1082 1117.86 11.6883 1114.49 11.6883C1111.11 11.6883 1108.28 15.1082 1105.99 21.9481C1103.73 28.7013 1102.6 37.0996 1102.6 47.1429C1102.6 57.0996 1103.73 65.4978 1105.99 72.3377Z" fill="white"/>
<path d="M1089.47 1.68835H1093.57V92.5975H1058.44V1.68835H1062.53V81.1689H1073.98V1.68835H1078.03V81.1689H1089.47V1.68835Z" fill="white"/>
<path d="M1050.45 92.5975L1047.94 72.2078H1034.07L1031.56 92.5975H1027.2L1038.69 1.68835H1043.31L1054.8 92.5975H1050.45ZM1035.48 60.9091H1046.53L1040.98 16.1039L1035.48 60.9091Z" fill="white"/>
<path d="M1020.68 45.4546C1022.09 47.4459 1023.2 50.3031 1024.02 54.026C1024.87 57.749 1025.3 62.0347 1025.3 66.8832C1025.3 74.1559 1024.43 80.2598 1022.7 85.1949C1020.97 90.1299 1018.86 92.5975 1016.36 92.5975H1003.07V1.68835H1015.39C1017.8 1.68835 1019.84 4.06931 1021.51 8.83121C1023.19 13.5931 1024.02 19.4806 1024.02 26.4936C1024.02 34.5455 1022.91 40.8659 1020.68 45.4546ZM1015.39 12.9871H1007.16V40.7793H1015.39C1016.69 40.7793 1017.77 39.4373 1018.65 36.7533C1019.53 34.0693 1019.97 30.7793 1019.97 26.8832C1019.97 23.0736 1019.52 19.8269 1018.61 17.1429C1017.73 14.3723 1016.66 12.9871 1015.39 12.9871ZM1016.36 81.2988C1017.74 81.2988 1018.9 79.8702 1019.84 77.013C1020.78 74.1559 1021.25 70.6494 1021.25 66.4936C1021.25 62.4243 1020.77 58.9611 1019.8 56.1039C1018.86 53.2468 1017.71 51.8182 1016.36 51.8182H1007.16V81.2988H1016.36Z" fill="white"/>
<path d="M985.456 1.68835V92.5975H981.406V57.7923H975.287L967.32 92.5975H962.697L970.885 57.013C968.772 55.5412 967.026 52.2511 965.647 47.1429C964.267 42.0347 963.578 36.2771 963.578 29.8702C963.578 22.078 964.502 15.4546 966.351 10C968.229 4.45892 970.489 1.68835 973.13 1.68835H985.456ZM973.13 46.8832H981.406V12.9871H973.13C971.634 12.9871 970.342 14.6321 969.257 17.9221C968.171 21.2122 967.628 25.1949 967.628 29.8702C967.628 34.5455 968.171 38.5715 969.257 41.9481C970.342 45.2381 971.634 46.8832 973.13 46.8832Z" fill="white"/>
<path d="M931.686 92.5974V81.6884C933.711 82.5542 935.223 80.9091 936.221 76.7533C937.248 72.5109 937.761 64.6754 937.761 53.2468V1.68835H958.099V92.5974H954.005V13.1169H941.855V53.2468C941.855 61.3853 941.591 68.2252 941.063 73.7663C940.564 79.2208 939.83 83.3334 938.862 86.1039C937.923 88.8745 936.866 90.7793 935.692 91.8182C934.548 92.7706 933.212 93.0303 931.686 92.5974Z" fill="white"/>
<path d="M926.217 81.1689H929.519V110H925.425V92.5974H905.087V110H900.993V81.1689H903.678C905.586 74.1559 906.54 63.5065 906.54 49.2208V1.68835H926.217V81.1689ZM908.3 81.1689H922.123V12.9871H910.634V49.4806C910.634 63.2468 909.856 73.8096 908.3 81.1689Z" fill="white"/>
<path d="M886.04 1.68835V92.5975H881.99V21.5585L871.909 71.039H871.38L861.3 21.6884V92.5975H857.206V1.68835H861.828L871.645 49.7403L881.417 1.68835H886.04Z" fill="white"/>
<path d="M846.52 92.5975V24.8052L830.672 92.5975H827.371V1.68835H831.465V69.6104L847.313 1.68835H850.614V92.5975H846.52Z" fill="white"/>
<path d="M817.896 45.4546C819.305 47.4459 820.42 50.3031 821.242 54.026C822.093 57.749 822.518 62.0347 822.518 66.8832C822.518 74.1559 821.652 80.2598 819.921 85.1949C818.189 90.1299 816.076 92.5975 813.582 92.5975H800.287V1.68835H812.613C815.02 1.68835 817.06 4.06931 818.732 8.83121C820.405 13.5931 821.242 19.4806 821.242 26.4936C821.242 34.5455 820.126 40.8659 817.896 45.4546ZM812.613 12.9871H804.381V40.7793H812.613C813.905 40.7793 814.991 39.4373 815.871 36.7533C816.751 34.0693 817.192 30.7793 817.192 26.8832C817.192 23.0736 816.737 19.8269 815.827 17.1429C814.947 14.3723 813.875 12.9871 812.613 12.9871ZM813.582 81.2988C814.961 81.2988 816.12 79.8702 817.06 77.013C817.999 74.1559 818.468 70.6494 818.468 66.4936C818.468 62.4243 817.984 58.9611 817.016 56.1039C816.076 53.2468 814.932 51.8182 813.582 51.8182H804.381V81.2988H813.582Z" fill="white"/>
<path d="M789.602 92.5975V24.8052L773.754 92.5975H770.453V1.68835H774.547V69.6104L790.394 1.68835H793.696V92.5975H789.602Z" fill="white"/>
<path d="M737.417 92.5974V81.6884C739.442 82.5542 740.953 80.9091 741.951 76.7533C742.978 72.5109 743.492 64.6754 743.492 53.2468V1.68835H763.83V92.5974H759.736V13.1169H747.586V53.2468C747.586 61.3853 747.322 68.2252 746.793 73.7663C746.295 79.2208 745.561 83.3334 744.592 86.1039C743.653 88.8745 742.597 90.7793 741.423 91.8182C740.278 92.7706 738.943 93.0303 737.417 92.5974Z" fill="white"/>
<path d="M731.948 81.1689H735.249V110H731.155V92.5974H710.817V110H706.723V81.1689H709.409C711.316 74.1559 712.27 63.5065 712.27 49.2208V1.68835H731.948V81.1689ZM714.031 81.1689H727.854V12.9871H716.364V49.4806C716.364 63.2468 715.586 73.8096 714.031 81.1689Z" fill="white"/>
<path d="M698.66 1.68835H702.754V92.5975H698.66V1.68835Z" fill="white"/>
<path d="M695.015 92.5975H689.997L676.703 48.9611V92.5975H672.609V1.68835H676.703V42.7273L689.557 1.68835H694.575L680.973 45.8442L695.015 92.5975Z" fill="white"/>
<path d="M661.901 1.68835H665.995V92.5975H630.866V1.68835H634.96V81.1689H646.405V1.68835H650.455V81.1689H661.901V1.68835Z" fill="white"/>
<path d="M609.175 92.5975V24.8052L593.327 92.5975H590.026V1.68835H594.12V69.6104L609.967 1.68835H613.269V92.5975H609.175Z" fill="white"/>
<path d="M585.974 1.68835V13.1169H576.862V92.5975H572.812V13.1169H563.744V1.68835H585.974Z" fill="white"/>
<path d="M558.369 1.68835H562.507L552.603 71.039C551.487 78.8312 550.064 84.5022 548.333 88.052C546.601 91.5152 544.488 93.0303 541.994 92.5974V81.4286C543.696 81.9481 545.075 81.2122 546.132 79.2208C547.188 77.2295 548.068 73.8096 548.773 68.9611L549.081 66.8832L538.648 1.68835H542.786L550.974 53.6364L558.369 1.68835Z" fill="white"/>
<path d="M527.92 37.4026C530.59 37.4026 532.85 40.0866 534.699 45.4546C536.548 50.736 537.472 57.2295 537.472 64.9351C537.472 72.8139 536.548 79.394 534.699 84.6754C532.879 89.9568 530.619 92.5975 527.92 92.5975H516.342V1.68835H534.831V13.1169H520.436V37.4026H527.92ZM527.92 81.2988C529.446 81.2988 530.737 79.7403 531.793 76.6234C532.879 73.5065 533.422 69.6104 533.422 64.9351C533.422 60.3464 532.879 56.4936 531.793 53.3767C530.737 50.2598 529.446 48.7013 527.92 48.7013H520.436V81.2988H527.92Z" fill="white"/>
<path d="M486.087 81.1689H500.394V92.5975H481.993V1.68835H500.174V13.1169H486.087V41.039H499.074V52.3377H486.087V81.1689Z" fill="white"/>
<path d="M477.936 92.5975H473.27L461.604 48.9611V92.5975H457.554V48.9611L445.889 92.5975H441.266L453.592 46.1039L441.707 1.68835H446.329L457.554 43.3767V1.68835H461.604V43.3767L472.83 1.68835H477.496L465.566 46.1039L477.936 92.5975Z" fill="white"/>
<path d="M436.81 80.5195C433.728 89.697 429.957 94.2857 425.497 94.2857C421.036 94.2857 417.265 89.697 414.183 80.5195C411.102 71.342 409.561 60.2165 409.561 47.1429C409.561 33.9827 411.102 22.8571 414.183 13.7662C417.265 4.58874 421.036 0 425.497 0C429.957 0 433.728 4.58874 436.81 13.7662C439.921 22.8571 441.476 33.9827 441.476 47.1429C441.476 60.2165 439.921 71.342 436.81 80.5195ZM417 72.3377C419.29 79.0909 422.122 82.4675 425.497 82.4675C428.871 82.4675 431.689 79.0909 433.949 72.3377C436.238 65.4978 437.382 57.0996 437.382 47.1429C437.382 37.0996 436.238 28.7013 433.949 21.9481C431.689 15.1082 428.871 11.6883 425.497 11.6883C422.122 11.6883 419.29 15.1082 417 21.9481C414.741 28.7013 413.611 37.0996 413.611 47.1429C413.611 57.0996 414.741 65.4978 417 72.3377Z" fill="white"/>
<path d="M404.6 1.68835V92.5975H400.55V21.5585L390.469 71.039H389.941L379.86 21.6884V92.5975H375.766V1.68835H380.389L390.205 49.7403L399.978 1.68835H404.6Z" fill="white"/>
<path d="M358.154 1.68835V92.5975H354.104V57.7923H347.985L340.017 92.5975H335.395L343.583 57.013C341.47 55.5412 339.723 52.2511 338.344 47.1429C336.965 42.0347 336.275 36.2771 336.275 29.8702C336.275 22.078 337.2 15.4546 339.048 10C340.927 4.45892 343.186 1.68835 345.828 1.68835H358.154ZM345.828 46.8832H354.104V12.9871H345.828C344.331 12.9871 343.04 14.6321 341.954 17.9221C340.868 21.2122 340.325 25.1949 340.325 29.8702C340.325 34.5455 340.868 38.5715 341.954 41.9481C343.04 45.2381 344.331 46.8832 345.828 46.8832Z" fill="white"/>
<path d="M326.775 1.68835H330.825V92.5975H326.775V51.6884H311.808V92.5975H307.714V1.68835H311.808V40.2598H326.775V1.68835Z" fill="white"/>
<path d="M297.069 1.68835H301.119V92.5975H297.069V51.6884H282.102V92.5975H278.008V1.68835H282.102V40.2598H297.069V1.68835Z" fill="white"/>
<path d="M270.015 92.5975L267.506 72.2078H253.639L251.13 92.5975H246.772L258.261 1.68835H262.883L274.373 92.5975H270.015ZM255.048 60.9091H266.097L260.55 16.1039L255.048 60.9091Z" fill="white"/>
<path d="M240.246 45.4546C241.655 47.4459 242.77 50.3031 243.592 54.026C244.443 57.749 244.868 62.0347 244.868 66.8832C244.868 74.1559 244.003 80.2598 242.271 85.1949C240.54 90.1299 238.427 92.5975 235.932 92.5975H222.638V1.68835H234.964C237.37 1.68835 239.41 4.06931 241.083 8.83121C242.755 13.5931 243.592 19.4806 243.592 26.4936C243.592 34.5455 242.477 40.8659 240.246 45.4546ZM234.964 12.9871H226.732V40.7793H234.964C236.255 40.7793 237.341 39.4373 238.221 36.7533C239.102 34.0693 239.542 30.7793 239.542 26.8832C239.542 23.0736 239.087 19.8269 238.177 17.1429C237.297 14.3723 236.226 12.9871 234.964 12.9871ZM235.932 81.2988C237.311 81.2988 238.471 79.8702 239.41 77.013C240.349 74.1559 240.818 70.6494 240.818 66.4936C240.818 62.4243 240.334 58.9611 239.366 56.1039C238.427 53.2468 237.282 51.8182 235.932 51.8182H226.732V81.2988H235.932Z" fill="white"/>
<path d="M214.755 1.68835H218.893L208.988 71.039C207.873 78.8312 206.449 84.5022 204.718 88.052C202.986 91.5152 200.873 93.0303 198.379 92.5974V81.4286C200.081 81.9481 201.46 81.2122 202.517 79.2208C203.573 77.2295 204.454 73.8096 205.158 68.9611L205.466 66.8832L195.033 1.68835H199.171L207.359 53.6364L214.755 1.68835Z" fill="white"/>
<path d="M194.317 92.5975H189.299L176.004 48.9611V92.5975H171.91V1.68835H176.004V42.7273L188.858 1.68835H193.877L180.274 45.8442L194.317 92.5975Z" fill="white"/>
<path d="M161.206 1.68835H165.3V92.5975H161.206V1.68835Z" fill="white"/>
<path d="M128.17 92.5974V81.6884C130.195 82.5542 131.706 80.9091 132.704 76.7533C133.731 72.5109 134.245 64.6754 134.245 53.2468V1.68835H154.583V92.5974H150.489V13.1169H138.339V53.2468C138.339 61.3853 138.075 68.2252 137.546 73.7663C137.048 79.2208 136.314 83.3334 135.345 86.1039C134.406 88.8745 133.35 90.7793 132.176 91.8182C131.031 92.7706 129.696 93.0303 128.17 92.5974Z" fill="white"/>
<path d="M123.03 80.5195C119.948 89.697 116.177 94.2857 111.716 94.2857C107.256 94.2857 103.484 89.697 100.403 80.5195C97.3214 71.342 95.7806 60.2165 95.7806 47.1429C95.7806 33.9827 97.3214 22.8571 100.403 13.7662C103.484 4.58874 107.256 0 111.716 0C116.177 0 119.948 4.58874 123.03 13.7662C126.141 22.8571 127.696 33.9827 127.696 47.1429C127.696 60.2165 126.141 71.342 123.03 80.5195ZM103.22 72.3377C105.509 79.0909 108.341 82.4675 111.716 82.4675C115.091 82.4675 117.909 79.0909 120.168 72.3377C122.458 65.4978 123.602 57.0996 123.602 47.1429C123.602 37.0996 122.458 28.7013 120.168 21.9481C117.909 15.1082 115.091 11.6883 111.716 11.6883C108.341 11.6883 105.509 15.1082 103.22 21.9481C100.96 28.7013 99.8306 37.0996 99.8306 47.1429C99.8306 57.0996 100.96 65.4978 103.22 72.3377Z" fill="white"/>
<path d="M90.8199 1.68835V92.5975H86.7699V21.5585L76.6891 71.039H76.1608L66.0799 21.6884V92.5975H61.986V1.68835H66.6082L76.4249 49.7403L86.1976 1.68835H90.8199Z" fill="white"/>
<path d="M53.9927 92.5975L51.4835 72.2078H37.6168L35.1076 92.5975H30.7495L42.2391 1.68835H46.8613L58.3508 92.5975H53.9927ZM39.0255 60.9091H50.0748L44.5282 16.1039L39.0255 60.9091Z" fill="white"/>
<path d="M16.1118 94.2857C11.4455 94.2857 7.58633 89.7403 4.53419 80.6494C1.5114 71.5584 0 60.3896 0 47.1429C0 33.8961 1.5114 22.7273 4.53419 13.6364C7.58633 4.54545 11.4455 0 16.1118 0C18.9291 0 21.5117 1.99134 23.8595 5.97403C26.2367 9.95671 28.0856 15.3247 29.4062 22.0779L25.8405 28.1818C24.96 23.1602 23.6394 19.1775 21.8786 16.2338C20.1471 13.2035 18.2248 11.6883 16.1118 11.6883C12.5607 11.6883 9.65532 15.0649 7.39557 21.8182C5.16516 28.5714 4.04995 37.013 4.04995 47.1429C4.04995 57.1862 5.16516 65.5844 7.39557 72.3377C9.65532 79.0909 12.5607 82.4675 16.1118 82.4675C18.2248 82.4675 20.1471 80.9957 21.8786 78.0519C23.6394 75.0216 24.96 71.039 25.8405 66.1039L29.4062 72.0779C28.1149 78.8312 26.2807 84.2424 23.9035 88.3117C21.5264 92.2944 18.9291 94.2857 16.1118 94.2857Z" fill="white"/>
</svg>
