<svg width="32" height="32" viewBox="0 0 32 32" fill="none" xmlns="http://www.w3.org/2000/svg">
<path fill-rule="evenodd" clip-rule="evenodd" d="M6.53333 0.566667C6.80088 0.209942 7.22076 0 7.66667 0H24.6667C25.1126 0 25.5325 0.209942 25.8 0.566667L30.0414 6.22183C30.2245 6.46054 30.3333 6.75923 30.3333 7.08333V26.9167C30.3333 28.0438 29.8856 29.1248 29.0885 29.9219C28.2915 30.7189 27.2105 31.1667 26.0833 31.1667H6.25C5.12283 31.1667 4.04183 30.7189 3.2448 29.9219C2.44777 29.1248 2 28.0438 2 26.9167V7.08333C2 6.75925 2.10882 6.46058 2.29192 6.22188L6.53333 0.566667ZM23.9583 2.83333L26.0833 5.66667H6.25L8.375 2.83333H23.9583ZM10.5 11.3333C11.2824 11.3333 11.9167 11.9676 11.9167 12.75C11.9167 13.8772 12.3644 14.9582 13.1615 15.7552C13.9585 16.5522 15.0395 17 16.1667 17C17.2938 17 18.3748 16.5522 19.1719 15.7552C19.9689 14.9582 20.4167 13.8772 20.4167 12.75C20.4167 11.9676 21.0509 11.3333 21.8333 11.3333C22.6157 11.3333 23.25 11.9676 23.25 12.75C23.25 14.6286 22.5037 16.4303 21.1753 17.7587C19.847 19.0871 18.0453 19.8333 16.1667 19.8333C14.2881 19.8333 12.4864 19.0871 11.158 17.7587C9.82961 16.4303 9.08333 14.6286 9.08333 12.75C9.08333 11.9676 9.7176 11.3333 10.5 11.3333Z" fill="white"/>
</svg>
