<svg width="159" height="40" viewBox="0 0 159 40" fill="none" xmlns="http://www.w3.org/2000/svg">
<path fill-rule="evenodd" clip-rule="evenodd" d="M4.0902 27.8281C3.42934 27.8281 3.08998 27.521 3.08998 27.1958C3.08998 27.0874 3.16142 26.8887 3.25073 26.7622C4.71534 24.8112 6.14424 22.6434 7.48382 20.4575L0 5.64394C0.964502 4.54196 1.96473 4 2.76848 4C3.30431 4 3.57223 4.16259 3.84015 4.70455L9.57358 16.8625C11.967 12.5087 13.9317 8.10082 15.1998 4.21678H17.8611C18.5577 4.21678 18.9685 4.52389 18.9685 4.95746C18.9685 5.05209 18.9413 5.13294 18.9106 5.22408L18.8971 5.26457C16.5394 12.2016 11.5383 21.5052 6.5729 27.81H4.10806L4.0902 27.8281ZM19.0578 9.92541C19.8973 9.69056 20.7547 9.58217 21.5584 9.58217C22.3622 9.58217 22.6658 9.85315 22.6658 10.4312V12.7617C23.8982 10.6661 26.0951 9.41958 28.4885 9.41958C32.7931 9.41958 36.151 12.7255 36.151 18.1451C36.151 24.2692 31.9536 28.2255 27.2918 28.2255C25.5593 28.2255 23.8625 27.6474 22.6658 26.5093V35H20.1295C19.3615 35 19.0578 34.729 19.0578 34.1509V9.92541ZM22.6658 16.8083V23.7092C23.7375 24.757 25.1664 25.1183 26.6667 25.1183C30.0246 25.1183 32.4894 22.2821 32.4894 18.2716C32.4894 14.7308 30.7212 12.4726 27.6669 12.4726C25.6307 12.4726 23.666 13.7914 22.6658 16.7902V16.8083ZM38.1693 18.8135C38.1693 24.8473 42.2238 28.2255 46.957 28.2255C51.6723 28.2255 55.7446 24.8293 55.7446 18.8135C55.7446 12.7978 51.6723 9.41958 46.957 9.41958C42.2416 9.41958 38.1693 12.7797 38.1693 18.8135ZM52.0831 19.0303C52.0831 23.2756 49.779 25.1364 47.082 25.1364C44.385 25.1364 41.813 22.8782 41.813 18.6329C41.813 14.3875 44.117 12.5268 46.8141 12.5268C49.5111 12.5268 52.0831 14.785 52.0831 19.0303ZM74.4989 27.8281H71.9626C71.1945 27.8281 70.8909 27.5571 70.8909 26.979V12.852H64.5859C64.5145 15.7244 64.2823 19.3916 63.8179 22.7879C63.3178 26.4913 61.7103 28.2075 58.9954 28.2075C57.2628 28.2075 55.566 27.2681 55.566 26.4551C55.566 25.9493 55.7625 25.2809 56.0661 24.8654C56.5663 25.1002 57.2628 25.2267 57.9058 25.2267C59.1025 25.2267 59.942 24.5221 60.2635 22.2279C60.7636 18.8316 61.0673 14.3333 61.0673 9.79895H73.4272C74.1952 9.79895 74.4989 10.0699 74.4989 10.648V27.81V27.8281ZM86.4301 28.2255C89.7628 28.2255 91.8862 26.7867 91.8956 25.7036L91.8956 25.7145V25.6964L91.8956 25.7036C91.8925 25.1631 91.6616 24.4657 91.3955 24.1247C89.9845 24.8293 88.627 25.1364 87.0552 25.1364C83.9295 25.1364 81.5897 23.5466 81.1968 20.3129H90.3596C91.7527 20.3129 92.4493 19.9516 92.9851 18.8316C93.3245 18.109 93.5567 17.0793 93.5567 15.9592C93.5567 12.2558 90.6989 9.41958 86.4301 9.41958C81.5719 9.41958 77.4995 12.9242 77.4995 18.8858C77.4995 24.3234 81.2325 28.2255 86.4301 28.2255ZM89.788 17.278H81.2325H81.2146C81.6255 14.3153 83.483 12.5268 86.2158 12.5268C88.6806 12.5268 90.0202 13.9359 90.0202 16.1579C90.0202 16.5373 89.9487 16.9347 89.788 17.278ZM111.025 13.9359C111.025 14.2791 110.793 14.6043 110.364 14.8753C109.739 15.2727 108.864 15.5798 107.971 15.6521C107.506 13.8275 106.131 12.5268 103.845 12.5268C101.148 12.5268 99.0758 14.6766 99.0758 18.1812C99.0758 22.7337 102.148 25.1183 105.649 25.1183C107.22 25.1183 108.649 24.8112 110.043 24.1066C110.31 24.5041 110.543 25.1906 110.543 25.6964C110.543 26.7803 108.381 28.2255 105.113 28.2255C100.183 28.2255 95.4143 24.6125 95.4143 18.2896C95.4143 12.7617 99.0043 9.41958 104.005 9.41958C107.346 9.41958 109.81 10.9732 110.811 12.9965C110.971 13.3397 111.043 13.6288 111.043 13.9359H111.025ZM129.779 26.419C129.779 25.9493 129.708 25.5338 129.583 25.1364H128.886C128.082 25.1364 127.618 24.7209 127.618 23.3479V16.6096C127.618 11.8223 124.76 9.43765 119.991 9.43765C116.526 9.43765 114.026 10.8829 114.026 11.9668C114.026 12.5087 114.258 13.2133 114.526 13.5565C115.937 12.852 117.455 12.5449 119.027 12.5449C122.42 12.5449 124.028 13.9178 124.028 16.4831V17.6212C123.028 17.0793 121.188 16.7179 119.688 16.7179C115.329 16.7179 112.525 18.9038 112.525 22.6072C112.525 25.9493 114.99 28.2436 118.527 28.2436C120.991 28.2436 123.028 27.0513 124.153 25.1725C124.582 27.2139 125.975 28.0629 127.279 28.0629C128.85 28.0629 129.779 27.1597 129.779 26.419ZM124.028 20.2768V22.3362C123.17 24.0886 121.313 25.1364 119.438 25.1364C117.562 25.1364 116.133 24.2512 116.133 22.4988C116.133 20.7465 117.598 19.8071 120.223 19.8071C121.367 19.8071 123.224 19.9697 124.028 20.2768ZM144.675 27.8281C143.907 27.8281 143.604 27.5571 143.604 26.979V20.042H135.709V27.8281H133.173C132.405 27.8281 132.101 27.5571 132.101 26.979V9.92541C132.941 9.69056 133.798 9.58217 134.602 9.58217C135.405 9.58217 135.709 9.85315 135.709 10.4312V17.007H143.604V9.83508H146.14C146.908 9.83508 147.212 10.1061 147.212 10.6841V27.8462H144.675V27.8281ZM153.713 13.3036C154.177 13.5023 154.678 13.5927 155.213 13.5927C155.749 13.5927 156.249 13.5023 156.714 13.3036C157.178 13.123 157.571 12.852 157.91 12.5087C158.25 12.1655 158.518 11.75 158.714 11.2803C158.893 10.8106 159 10.2867 159 9.72669C159 9.16667 158.911 8.66084 158.714 8.19114C158.518 7.72145 158.25 7.30595 157.91 6.96271C157.571 6.61947 157.178 6.34849 156.714 6.14977C156.267 5.95105 155.749 5.86072 155.213 5.86072C154.678 5.86072 154.177 5.95105 153.713 6.14977C153.249 6.34849 152.856 6.61947 152.516 6.96271C152.159 7.30595 151.909 7.72145 151.713 8.19114C151.516 8.67891 151.427 9.16667 151.427 9.72669C151.427 10.2867 151.516 10.8106 151.713 11.2803C151.909 11.75 152.177 12.1655 152.516 12.5087C152.856 12.852 153.249 13.1049 153.713 13.3036ZM153.999 6.76399C154.356 6.6014 154.767 6.51107 155.213 6.51107V6.49301C155.642 6.49301 156.053 6.58333 156.428 6.74592C156.803 6.92657 157.142 7.14336 157.41 7.4324C157.696 7.72145 157.91 8.06469 158.053 8.46212C158.214 8.85956 158.286 9.29312 158.286 9.72669C158.286 10.1603 158.196 10.5758 158.053 10.9732C157.91 11.3526 157.696 11.6958 157.41 11.9849C157.125 12.2739 156.803 12.5087 156.428 12.6713C156.071 12.8339 155.642 12.9242 155.213 12.9242C154.785 12.9242 154.374 12.8339 153.999 12.6713C153.624 12.4907 153.302 12.2739 153.034 11.9849C152.766 11.6958 152.552 11.3526 152.391 10.9732C152.231 10.5938 152.159 10.1783 152.159 9.72669C152.159 9.27506 152.231 8.85956 152.391 8.46212C152.552 8.08275 152.766 7.73951 153.034 7.45047C153.302 7.16142 153.624 6.92657 153.999 6.76399ZM154.499 10.3228H155.392L156.178 11.9668H157.071L156.196 10.1964C156.732 9.94347 157 9.50991 157 8.89569C157 8.42599 156.857 8.08275 156.589 7.8479C156.321 7.61306 155.964 7.50466 155.535 7.50466H153.731V11.9668H154.499V10.3228ZM154.499 9.60023V8.22727H154.517H155.517C155.981 8.22727 156.214 8.46212 156.214 8.91375C156.214 9.13054 156.142 9.29312 156.035 9.41958C155.91 9.54604 155.731 9.60023 155.499 9.60023H154.499Z" fill="white"/>
</svg>
