<svg width="132" height="132" viewBox="0 0 132 132" fill="none" xmlns="http://www.w3.org/2000/svg">
<path fill-rule="evenodd" clip-rule="evenodd" d="M52.5455 121.744C55.3501 121.744 57.5538 119.548 57.5538 116.752C57.5538 113.957 55.3501 111.761 52.5455 111.761C49.7408 111.761 47.5371 113.957 47.5371 116.752C47.5371 119.348 49.7408 121.744 52.5455 121.744ZM52.5455 124.339C56.7525 124.339 60.1581 120.945 60.1581 116.752C60.1581 112.56 56.7525 109.166 52.5455 109.166C48.3385 109.166 44.9328 112.56 44.9328 116.752C44.7324 120.746 48.3385 124.339 52.5455 124.339Z" fill="#3FA535"/>
<path fill-rule="evenodd" clip-rule="evenodd" d="M110.242 75.8229C113.046 75.8229 115.25 73.6267 115.25 70.8315C115.25 68.0364 113.046 65.8402 110.242 65.8402C107.437 65.8402 105.233 68.0364 105.233 70.8315C105.233 73.6267 107.437 75.8229 110.242 75.8229ZM110.242 78.4185C114.449 78.4185 117.854 75.0243 117.854 70.8315C117.854 66.6388 114.449 63.2446 110.242 63.2446C106.035 63.2446 102.629 66.6388 102.629 70.8315C102.629 75.0243 106.035 78.4185 110.242 78.4185Z" fill="#3FA535"/>
<path fill-rule="evenodd" clip-rule="evenodd" d="M55.5502 30.9006C58.3549 30.9006 60.5585 28.7044 60.5585 25.9092C60.5585 23.114 58.3549 20.9178 55.5502 20.9178C52.7455 20.9178 50.5418 23.114 50.5418 25.9092C50.5418 28.5047 52.7455 30.9006 55.5502 30.9006ZM55.5502 33.4961C59.7572 33.4961 63.1629 30.102 63.1629 25.9092C63.1629 21.7164 59.7572 18.3223 55.5502 18.3223C51.3432 18.3223 47.9375 21.7164 47.9375 25.9092C47.9375 30.102 51.3432 33.4961 55.5502 33.4961Z" fill="#3FA535"/>
<path d="M44.0845 60.3391C44.0845 63.7332 41.2798 66.3288 38.0745 66.3288C34.6688 66.3288 32.0645 63.5336 32.0645 60.3391C32.0645 56.945 34.8691 54.3494 38.0745 54.3494C41.4801 54.1498 44.0845 56.945 44.0845 60.3391Z" fill="#C8E514"/>
<path d="M74.8758 42.7504C74.8758 44.7469 73.2731 46.1445 71.4701 46.1445C69.4668 46.1445 68.0645 44.5473 68.0645 42.7504C68.0645 40.9535 69.6671 39.3562 71.4701 39.3562C73.2731 39.1566 74.8758 40.7538 74.8758 42.7504Z" fill="#3FA535"/>
<path d="M128.472 16.5356C128.472 17.7335 127.47 18.7318 126.268 18.7318C125.066 18.7318 124.064 17.7335 124.064 16.5356C124.064 15.3376 125.066 14.3394 126.268 14.3394C127.47 14.539 128.472 15.3376 128.472 16.5356Z" fill="#C8E514"/>
<path d="M36.4718 12.5356C36.4718 13.7335 35.4701 14.7318 34.2681 14.7318C33.0661 14.7318 32.0645 13.7335 32.0645 12.5356C32.0645 11.3376 33.0661 10.3394 34.2681 10.3394C35.4701 10.3394 36.4718 11.3376 36.4718 12.5356Z" fill="#C8E514"/>
<path d="M94.4885 82.527C94.4885 86.5201 91.2831 89.7146 87.2765 89.7146C83.2698 89.7146 80.0645 86.5201 80.0645 82.527C80.0645 78.5338 83.2698 75.3394 87.2765 75.3394C91.2831 75.3394 94.4885 78.5338 94.4885 82.527Z" fill="#3FA535"/>
<path d="M96.8792 13.7318C96.8792 16.1277 94.8758 18.1242 92.4718 18.1242C90.0678 18.1242 88.0645 16.1277 88.0645 13.7318C88.0645 11.3359 90.0678 9.33936 92.4718 9.33936C94.8758 9.53901 96.8792 11.3359 96.8792 13.7318Z" fill="#C8E514"/>
<path d="M100.425 43.8783C91.6105 32.2982 78.3884 25.7096 63.9644 25.7096C62.7624 25.7096 61.5604 25.7096 60.5587 25.9093L60.3584 24.5117C61.5604 24.312 62.7624 24.312 63.9644 24.312C78.7891 24.312 92.6121 31.1003 101.427 42.88L100.425 43.8783Z" fill="#3FA535"/>
<path d="M47.5378 115.155C29.1071 108.367 16.8867 90.7973 16.8867 71.231C16.8867 60.25 20.6931 49.4686 27.9051 41.083L28.9068 41.8816C22.0954 50.0675 18.2891 60.4496 18.2891 71.231C18.2891 90.1983 30.3091 107.369 47.9385 113.957L47.5378 115.155Z" fill="#3FA535"/>
<path d="M77.1868 116.154L76.7861 114.756C94.6159 109.565 107.638 93.7922 109.441 75.4238L110.843 75.6235C109.04 94.5908 95.4172 110.963 77.1868 116.154Z" fill="#3FA535"/>
<path fill-rule="evenodd" clip-rule="evenodd" d="M57.3537 92.9934C54.549 92.9934 52.3454 95.1896 52.3454 97.9848C52.3454 100.78 54.549 102.976 57.3537 102.976C60.1584 102.976 62.3621 100.78 62.3621 97.9848C62.3621 95.1896 60.1584 92.9934 57.3537 92.9934ZM41.928 29.3032C19.4906 18.1225 11.6776 18.1225 4.26525 8.33936C4.26525 8.33936 -1.9451 48.6698 45.7344 45.076C45.7344 45.076 44.1317 38.2877 36.7193 34.2946C29.307 30.3015 18.2886 25.7094 13.2803 20.5184C13.2803 20.5184 20.893 25.1104 33.514 30.5011C58.7561 41.2826 54.3487 67.8368 54.3487 90.7972C51.544 91.9951 49.5407 94.7903 49.5407 97.9848C49.5407 102.178 52.9464 105.572 57.1534 105.572C61.3604 105.572 64.7661 102.178 64.7661 97.9848C64.7661 94.7903 62.7627 91.9951 59.9581 90.7972C60.1584 70.4323 63.3637 40.0846 41.928 29.3032Z" fill="url(#paint0_linear_557_19860)"/>
<path fill-rule="evenodd" clip-rule="evenodd" d="M70.7756 111.562C73.5803 111.562 75.784 113.758 75.784 116.553C75.784 119.348 73.5803 121.545 70.7756 121.545C67.971 121.545 65.7673 119.348 65.7673 116.553C65.7673 113.758 67.971 111.562 70.7756 111.562ZM86.2013 47.8716C108.639 36.6908 116.452 36.4912 123.864 26.9077C123.864 26.9077 130.074 67.2382 82.395 63.6444C82.395 63.6444 83.9977 56.8561 91.41 52.863C98.8224 48.8698 109.841 44.2778 114.849 39.0867C114.849 39.0867 107.236 43.6788 94.6154 49.0695C69.3733 59.8509 73.7806 86.4051 73.7806 109.366C76.5853 110.563 78.5887 113.359 78.5887 116.553C78.5887 120.746 75.183 124.14 70.976 124.14C66.769 124.14 63.3633 120.746 63.3633 116.553C63.3633 113.359 65.3666 110.563 68.1713 109.366C67.971 89.0006 64.5653 58.653 86.2013 47.8716Z" fill="url(#paint1_linear_557_19860)"/>
<defs>
<linearGradient id="paint0_linear_557_19860" x1="33.5669" y1="-31.8128" x2="35.4721" y2="142.907" gradientUnits="userSpaceOnUse">
<stop stop-color="#3FA535"/>
<stop offset="1" stop-color="#C8E514"/>
</linearGradient>
<linearGradient id="paint1_linear_557_19860" x1="92.383" y1="-32.4537" x2="94.2881" y2="142.267" gradientUnits="userSpaceOnUse">
<stop stop-color="#3FA535"/>
<stop offset="1" stop-color="#C8E514"/>
</linearGradient>
</defs>
</svg>
