<svg width="132" height="132" viewBox="0 0 132 132" fill="none" xmlns="http://www.w3.org/2000/svg">
<path d="M59.3379 64.7708C60.3982 65.0236 61.6304 65.2616 62.8479 65.329C63.0198 65.3143 64.0508 65.2258 64.2373 65.3817C64.2373 65.3817 60.5955 63.2878 57.1217 59.1169C53.6626 55.1166 52.8904 48.1356 52.8904 48.1356C52.8904 48.1356 56.7595 56.9135 63.0999 62.2135C64.4053 63.3046 66.4712 65.19 66.4712 65.19C66.4712 65.19 68.346 56.7787 64.8683 50.5455C59.1637 40.55 48.4179 38.3782 48.4179 38.3782C46.8421 38.1697 49.0252 41.42 47.7021 46.1744C46.4923 50.2316 45.6555 54.6005 50.2774 60.048C52.3873 62.4452 56.859 64.1241 59.3379 64.7708Z" fill="url(#paint0_linear_557_19890)"/>
<path d="M67.9245 70.0496C67.738 69.8937 67.1493 69.0848 67.3065 68.8995C67.3065 68.8995 67.3142 73.024 65.3184 78.008C63.4945 82.9773 57.8022 87.2472 57.8022 87.2472C57.8022 87.2472 63.5453 79.5353 64.9192 71.3388C65.2884 69.5883 65.7561 66.9699 65.7561 66.9699C65.7561 66.9699 57.497 69.5693 53.8707 75.7246C47.7877 85.5283 51.2731 95.886 51.2731 95.886C51.7486 97.3922 53.6896 93.7879 58.6144 92.6778C62.8518 91.6267 66.8881 90.249 69.4249 83.4997C70.5507 80.4811 69.8117 75.9036 69.0765 73.3884C68.7876 72.0382 68.356 71.0439 67.9245 70.0496Z" fill="url(#paint1_linear_557_19890)"/>
<path d="M93.5719 60.2861C90.5296 57.1095 87.3448 54.2888 80.1861 55.5907C76.9505 56.2121 73.3896 59.0959 71.4739 60.9791C70.688 61.906 69.8873 62.6623 69.2878 63.745C69.1306 63.9304 68.8601 64.813 68.5311 65.0131C68.5311 65.0131 72.1652 62.9824 77.4483 62.0135C82.7314 61.0445 89.2104 63.9262 89.2104 63.9262C89.2104 63.9262 79.5982 62.8603 71.8839 65.7567C70.2094 66.4161 67.6758 67.1491 67.6758 67.1491C67.6758 67.1491 74.0601 72.961 81.164 73.039C92.7798 73.2454 100.04 65.0595 100.04 65.0595C100.969 63.7766 97.0018 63.9451 93.5719 60.2861Z" fill="url(#paint2_linear_557_19890)"/>
<path d="M107.652 69.4968C106.962 68.4693 106.1 67.613 105.237 66.5855C106.1 65.558 106.962 64.7017 107.652 63.6742C114.206 55.4539 118 47.4049 118 40.8973C118 38.1572 117.31 35.7596 115.93 33.7046C114.551 31.4782 112.308 29.9369 109.549 28.9094C106.789 27.8819 103.685 27.3681 100.063 27.3681C95.9237 27.3681 91.0945 28.0531 86.0929 29.4232C85.5755 27.8819 84.8856 26.3406 84.3682 24.7993C82.126 19.4904 79.3665 15.0378 76.262 11.9552C73.1575 8.70132 69.7081 6.98877 65.9138 6.98877C62.2919 6.98877 58.8425 8.70132 55.738 11.7839C54.3582 13.1539 52.9784 14.8665 51.7711 16.7503C51.7711 14.524 51.2537 12.2977 50.2189 10.2426C49.529 9.04383 48.8391 8.53006 48.8391 8.53006C48.8391 8.53006 47.9768 13.1539 43.665 16.2365C39.3532 19.3191 46.0796 24.628 46.0796 24.628C46.0796 24.628 45.7347 21.5454 46.2521 18.1203C46.7695 14.6952 47.9768 13.3252 47.9768 13.3252C47.9768 13.3252 46.4245 16.2365 46.942 23.6005C46.942 24.1143 46.942 25.3131 46.942 26.5118C46.597 27.3681 46.2521 28.3956 45.9071 29.2519C40.9055 27.8819 36.0763 27.1969 31.937 27.1969C28.3151 27.1969 25.0381 27.7106 22.4511 28.7382C19.6915 29.7657 17.6219 31.307 16.0697 33.5333C14.6899 35.5884 14 38.1572 14 40.8973C14 47.4049 17.7944 55.4539 24.3483 63.6742C25.0381 64.7017 25.9005 65.558 26.7629 66.5855C25.9005 67.613 25.0381 68.4693 24.3483 69.4968C17.7944 77.7171 14 85.7661 14 92.2738C14 95.0138 14.6899 97.4114 16.0697 99.4665C17.4494 101.693 19.6915 103.234 22.4511 104.262C25.2106 105.289 28.3151 105.803 31.937 105.803C36.0763 105.803 40.9055 105.118 45.9071 103.748C46.4245 105.289 47.1144 106.83 47.6318 108.372C49.874 113.681 52.6335 118.133 55.738 121.216C58.8425 124.298 62.2919 126.011 65.9138 126.011C69.5357 126.011 72.9851 124.298 76.0896 121.216C80.0564 117.277 83.3333 111.283 86.0929 103.748C91.0945 105.118 95.9237 105.803 100.063 105.803C103.685 105.803 106.962 105.289 109.549 104.262C112.308 103.234 114.378 101.693 115.93 99.4665C117.31 97.4114 118 95.0138 118 92.2738C118 85.5948 114.206 77.7171 107.652 69.4968ZM100.063 28.3956C103.512 28.3956 106.617 28.9094 109.204 29.9369C111.791 30.9645 113.688 32.3345 115.068 34.3896C116.275 36.2734 116.965 38.4997 116.965 41.0685C116.965 47.2337 113.343 55.1114 106.789 63.1604C106.1 64.0167 105.237 65.0442 104.547 65.9005C100.753 61.6191 96.2687 57.509 91.267 53.3989C90.9221 49.8025 90.4046 46.3774 89.7148 42.9523C90.4046 42.6098 90.9221 41.9248 90.9221 41.2398C90.9221 40.2122 90.0597 39.356 89.0249 39.356C88.335 36.2734 87.4726 33.362 86.6103 30.622C91.4395 28.9094 96.0962 28.3956 100.063 28.3956ZM90.4046 75.3195C90.2322 76.6896 90.2322 78.0596 90.0597 79.4296C86.7827 81.9985 83.3333 84.5673 79.7114 86.9649C75.2272 90.0474 70.5705 92.6163 66.0862 94.8426C64.3615 93.9863 62.6368 92.9588 60.7396 92.1025C60.2222 92.2738 59.8773 92.445 59.3599 92.6163C61.0846 93.6438 62.9818 94.6713 64.7065 95.5276C58.325 98.6102 52.2886 101.008 46.4245 102.549C46.0796 101.522 45.7347 100.494 45.3897 99.4665C44.5274 96.7264 43.8375 93.8151 43.3201 90.7325C44.0099 90.39 44.3549 89.7049 44.3549 89.0199C44.3549 87.9924 43.665 87.3074 42.6302 87.1361C42.2852 85.081 42.1128 83.1972 41.7678 81.1422C43.1476 82.341 44.6998 83.3685 46.2521 84.5673C46.4245 84.2248 46.4245 83.711 46.597 83.3685C44.8723 82.1697 43.1476 80.7997 41.5954 79.6009C41.2504 75.4908 40.9055 71.2094 40.9055 66.7568C40.9055 62.3041 41.0779 58.0228 41.5954 53.9126C43.1476 52.7139 44.6998 51.5151 46.2521 50.3163C46.2521 49.8025 46.2521 49.46 46.2521 48.9462C44.6998 49.9738 43.3201 51.1726 41.7678 52.3713C42.6302 44.3224 44.1824 37.1297 46.2521 30.7932C51.9436 32.3345 58.1526 34.7321 64.534 37.8147C62.9818 38.4997 61.602 39.356 60.0498 40.2122C60.3947 40.3835 60.5672 40.726 60.9121 41.0685C62.6368 40.2122 64.1891 39.356 65.7413 38.4997C70.2255 40.726 74.8823 43.4661 79.3665 46.3774C82.9884 48.775 86.6103 51.3438 89.7148 53.9126C89.8872 55.1114 89.8872 56.139 90.0597 57.3377C90.4046 57.509 90.9221 57.8515 91.267 58.0228C91.267 56.9952 91.0945 55.9677 91.0945 54.7689C95.7512 58.7078 99.8905 62.6466 103.512 66.5855C99.8905 70.5244 95.7512 74.6345 91.0945 78.4021C91.267 77.2033 91.267 75.8333 91.4395 74.4632C91.267 74.8058 90.7496 74.977 90.4046 75.3195ZM89.8872 80.9709C89.0249 89.0199 87.4726 96.2126 85.403 102.549C79.7114 101.008 73.5025 98.6102 67.2935 95.5276C71.6053 93.3013 75.9171 90.7325 80.4013 87.9924C83.6783 85.5948 86.9552 83.3685 89.8872 80.9709ZM40.733 78.4021C36.0763 74.4632 31.937 70.5244 28.3151 66.5855C31.7645 62.6466 36.0763 58.5365 40.733 54.7689C40.3881 58.5365 40.2156 62.4754 40.2156 66.5855C40.2156 70.5244 40.3881 74.4632 40.733 78.4021ZM86.4378 33.7046C86.9552 35.4171 87.4726 37.3009 87.8176 39.356C87.3002 39.6985 86.9552 40.3835 86.9552 41.0685C86.9552 42.096 87.6451 42.7811 88.6799 42.9523C89.1973 45.8637 89.7148 48.9462 90.0597 52.2001C86.9552 49.8025 83.8507 47.4049 80.4013 45.1786C76.0896 42.2673 71.6053 39.6985 67.2935 37.6434C73.675 34.5608 79.7114 32.1633 85.403 30.622C85.7479 31.6495 86.0929 32.677 86.4378 33.7046ZM47.8043 26.8544C48.1493 26.6831 48.3217 26.6831 48.4942 26.6831C51.9436 25.6556 53.1509 24.4568 53.1509 24.4568C53.1509 24.4568 52.806 25.3131 51.2537 25.9981C49.7015 26.8544 48.1493 27.1969 48.1493 27.1969C48.1493 27.1969 51.0813 29.0807 52.6335 26.8544C54.1857 24.4568 55.393 23.0867 55.393 23.0867C55.393 23.0867 55.0481 22.9155 54.3582 22.7442C52.6335 22.573 51.0813 22.9155 49.7015 23.7718C50.5638 22.4017 51.2537 20.8604 51.5987 19.3191C53.1509 16.579 54.8756 14.3527 56.6003 12.6402C59.5323 9.72885 62.8093 8.18755 66.0862 8.18755C69.3632 8.18755 72.6401 9.72885 75.5721 12.6402C79.3665 16.4078 82.6434 22.2305 85.2305 29.5944C79.194 31.307 72.8126 33.7045 66.0862 36.9584C59.5323 33.7045 52.9784 31.1357 46.942 29.5944C47.2869 28.5669 47.6318 27.7106 47.8043 26.8544ZM25.2106 62.9892C18.6567 54.7689 15.0348 47.0624 15.0348 40.8973C15.0348 38.3284 15.7247 36.1021 16.932 34.2183C18.3118 32.3345 20.209 30.7932 22.796 29.7657C25.3831 28.7382 28.3151 28.2244 31.937 28.2244C35.9038 28.2244 40.5605 28.9094 45.5622 30.1082C45.2172 31.1357 44.8723 32.1633 44.5274 33.1908C42.8027 39.1847 41.5954 45.6924 40.9055 52.8851C35.9038 56.9952 31.4196 61.2766 27.6252 65.3867C26.7629 64.7017 25.9005 63.8454 25.2106 62.9892ZM31.7645 104.775C28.3151 104.775 25.2106 104.262 22.6235 103.234C20.0365 102.207 18.1393 100.837 16.7595 98.7814C15.8972 97.5827 15.3798 96.2126 15.2073 94.8426C15.8972 93.9863 16.4146 93.13 16.7595 92.7875C20.7264 87.9924 21.2438 85.2523 21.2438 85.2523C21.2438 85.2523 21.4163 86.7936 20.0365 89.3624C18.6567 91.9313 16.932 93.9863 16.932 93.9863C16.932 93.9863 22.9685 93.8151 22.796 89.3624C22.6235 84.396 23.141 81.3134 23.141 81.3134C23.141 81.3134 22.2786 81.3134 21.2438 81.8272C18.4842 83.1973 16.5871 85.4236 15.5522 87.9924C16.7595 82.6835 20.0365 76.5183 25.0381 70.3531C25.728 69.4968 26.5904 68.4693 27.2803 67.613C31.0746 71.8944 35.5589 76.0045 40.5605 80.1147C40.733 82.5122 41.0779 84.9098 41.4229 87.3074C40.733 87.6499 40.2156 88.3349 40.2156 89.0199C40.2156 90.0474 41.0779 90.9037 41.9403 90.9037C42.8027 95.1851 43.8375 99.124 45.0448 102.892C40.5605 104.09 35.9038 104.775 31.7645 104.775ZM83.3333 108.029C81.0912 113.338 78.3317 117.62 75.3997 120.531C72.4677 123.442 69.1907 124.983 65.9138 124.983C62.6368 124.983 59.3599 123.442 56.4279 120.531C52.6335 116.763 49.3565 110.941 46.7695 103.577C52.806 101.864 59.1874 99.4665 65.9138 96.2126C72.4677 99.4665 79.0216 102.035 85.058 103.577C84.5406 105.118 84.0232 106.659 83.3333 108.029ZM115.068 98.7814C113.688 100.665 111.791 102.207 109.204 103.234C106.617 104.262 103.685 104.775 100.063 104.775C96.0962 104.775 91.4395 104.09 86.4378 102.892C86.7828 101.864 87.1277 100.837 87.4726 99.809C89.1973 93.9863 90.4046 87.3074 91.0945 80.1147C96.0962 76.0045 100.58 71.7232 104.375 67.4418C105.237 68.2981 105.927 69.3256 106.617 70.1819C111.446 76.1758 114.551 81.9985 115.93 87.1361C114.551 84.5673 112.308 82.341 109.204 81.4847C108.169 81.1422 107.307 81.3134 107.307 81.3134C107.307 81.3134 109.549 84.5673 108.687 89.0199C107.824 93.3013 115.068 92.6163 115.068 92.6163C115.068 92.6163 112.998 90.9037 111.446 88.6774C109.721 86.2798 109.721 84.9098 109.721 84.9098C109.721 84.9098 110.584 87.4786 115.068 91.5887C115.413 91.9313 116.103 92.6163 116.62 93.13C116.793 95.1851 116.103 97.0689 115.068 98.7814Z" fill="#3FA535"/>
<path d="M32.7994 34.8517C32.7994 32.9679 31.2472 31.2554 29.1776 31.2554C27.1079 31.2554 25.5557 32.7967 25.5557 34.8517C25.5557 36.7355 27.1079 38.4481 29.1776 38.4481C31.2472 38.4481 32.7994 36.7355 32.7994 34.8517Z" fill="#C8E514"/>
<path d="M29.5909 52.0557C28.7286 52.0557 27.8662 52.7407 27.8662 53.7682C27.8662 54.6245 28.5561 55.4808 29.5909 55.4808C30.4533 55.4808 31.3156 54.7957 31.3156 53.7682C31.3156 52.7407 30.4533 52.0557 29.5909 52.0557Z" fill="#C8E514"/>
<path d="M105.599 85.6964C105.599 83.8126 104.047 82.1001 101.977 82.1001C100.08 82.1001 98.3555 83.6414 98.3555 85.6964C98.3555 87.7515 99.9077 89.2928 101.977 89.2928C103.875 89.1215 105.599 87.5803 105.599 85.6964Z" fill="#C8E514"/>
<path d="M94.3028 93.6553C93.4405 93.6553 92.5781 94.3403 92.5781 95.3678C92.5781 96.3954 93.268 97.0804 94.3028 97.0804C95.1652 97.0804 96.0275 96.3954 96.0275 95.3678C96.0275 94.3403 95.1652 93.6553 94.3028 93.6553Z" fill="#EAF69E"/>
<defs>
<linearGradient id="paint0_linear_557_19890" x1="46.8301" y1="52.4837" x2="66.4263" y2="50.8021" gradientUnits="userSpaceOnUse">
<stop stop-color="#3FA535"/>
<stop offset="1" stop-color="#C8E514"/>
</linearGradient>
<linearGradient id="paint1_linear_557_19890" x1="49.6562" y1="82.3127" x2="70.2117" y2="80.5488" gradientUnits="userSpaceOnUse">
<stop stop-color="#3FA535"/>
<stop offset="1" stop-color="#C8E514"/>
</linearGradient>
<linearGradient id="paint2_linear_557_19890" x1="67.5269" y1="65.4621" x2="99.9989" y2="62.6757" gradientUnits="userSpaceOnUse">
<stop stop-color="#3FA535"/>
<stop offset="1" stop-color="#C8E514"/>
</linearGradient>
</defs>
</svg>
