<svg width="123" height="132" viewBox="0 0 123 132" fill="none" xmlns="http://www.w3.org/2000/svg">
<path fill-rule="evenodd" clip-rule="evenodd" d="M61.4373 81.9434H91.8349L107.111 55.5086L107.29 55.149L91.8349 28.3545H60.9237L45.8556 54.4297H15.4556L0.179716 80.8645L0 81.2241L15.4556 108.019H46.5465L61.4373 81.9434ZM91.116 80.6846H61.6425L46.9058 55.149L61.6425 29.6133H91.116L105.853 55.149L91.116 80.6846ZM45.6479 106.76H16.1745L1.43773 81.2241L16.1745 55.6885H45.6479L60.3847 81.2241L45.6479 106.76Z" fill="#3FA535"/>
<path d="M24.1044 72.8637C24.1044 72.8637 28.3945 72.1639 36.0022 75.7368C43.4375 79.3603 49.1793 84.2319 49.1793 84.2319C49.1793 84.2319 47.2372 63.6215 35.4223 68.0345C23.3133 72.7215 12.9567 68.0829 12.9567 68.0829C12.9567 68.0829 13.0485 70.3053 14.6517 73.2077C22.0691 86.9588 37.9234 93.729 52.6999 89.1945C50.316 87.459 47.3134 85.5306 46.0961 84.5766C31.9144 73.9402 24.1044 72.8637 24.1044 72.8637Z" fill="url(#paint0_linear_557_19841)"/>
<path d="M90.9669 42.8465C90.9669 42.8465 85.2285 43.0741 76.3662 49.4743C67.5039 55.8745 61.4389 63.5548 61.4389 63.5548C61.4389 63.5548 50.397 32.2176 92.0057 32.6003C99.1676 32.6428 104.238 33.9004 104.238 33.9004C104.238 33.9004 104.607 36.8538 103.338 40.7901C97.2711 60.1849 78.294 72.7702 58.0942 70.4119C60.7376 67.4855 64.1755 64.4374 65.4669 62.7755C81.1064 45.9015 90.9669 42.8465 90.9669 42.8465Z" fill="url(#paint1_linear_557_19841)"/>
<path d="M40.002 97.6164C41.2693 95.5565 44.3421 93.9027 46.3095 92.9491C47.1208 92.5229 48.1553 92.2186 49.0681 92.1375C49.2405 92.0868 49.9809 92.0564 50.1533 92.0057C50.1533 92.0057 46.3103 96.1355 43.8973 100.032C41.4843 103.928 41.4544 106.374 41.4544 106.374C41.4544 106.374 44.9116 100.296 49.4846 94.8267C50.4884 93.7816 52.0297 92.0161 52.0297 92.0161C52.0297 92.0161 53.3597 97.8106 51.3325 103.656C48.8695 110.566 41.6589 113.437 41.6589 113.437C41.4865 113.488 33.9594 107.642 40.002 97.6164Z" fill="url(#paint2_linear_557_19841)"/>
<path d="M51.1521 25.306C51.1521 28.3631 48.8158 30.7009 45.7606 30.7009C42.7055 30.7009 40.3691 28.3631 40.3691 25.306C40.3691 22.2489 42.7055 19.9111 45.7606 19.9111C48.6361 19.9111 51.1521 22.4287 51.1521 25.306Z" fill="#C8E514"/>
<path d="M122.293 78.3706C122.293 79.989 120.855 81.4277 119.238 81.4277C117.62 81.4277 116.183 79.989 116.183 78.3706C116.183 76.7521 117.62 75.3135 119.238 75.3135C120.855 75.3135 122.293 76.7521 122.293 78.3706Z" fill="#3FA535"/>
<path d="M13.2204 27.7213C13.2204 28.8003 12.3218 29.6994 11.2435 29.6994C10.1652 29.6994 9.2666 28.8003 9.2666 27.7213C9.2666 26.6423 10.1652 25.7432 11.2435 25.7432C12.3218 25.7432 13.2204 26.6423 13.2204 27.7213Z" fill="#3FA535"/>
<path d="M102.641 100.619C102.641 101.698 101.743 102.597 100.664 102.597C99.5861 102.597 98.6875 101.698 98.6875 100.619C98.6875 99.5403 99.5861 98.6411 100.664 98.6411C101.743 98.8209 102.641 99.5403 102.641 100.619Z" fill="#C8E514"/>
<path d="M74.9198 2.19743C74.9198 3.63606 73.6618 4.89486 72.2241 4.89486C70.7863 4.89486 69.5283 3.63606 69.5283 2.19743C69.5283 0.758801 70.6066 -0.5 72.0443 -0.5C73.6618 -0.5 74.9198 0.758801 74.9198 2.19743Z" fill="#3FA535"/>
<path d="M77.8358 99.3947C77.8358 100.833 76.5778 102.092 75.1401 102.092C73.7023 102.092 72.4443 100.833 72.4443 99.3947C72.4443 97.9561 73.7023 96.6973 75.1401 96.6973C76.5778 96.6973 77.8358 97.9561 77.8358 99.3947Z" fill="#C8E514"/>
<path d="M70.8038 125.526C70.8038 129.123 67.9284 132 64.334 132C60.7397 132 57.8643 129.123 57.8643 125.526C57.8643 121.929 60.7397 119.052 64.334 119.052C67.9284 119.052 70.8038 121.929 70.8038 125.526Z" fill="#3FA535"/>
<defs>
<linearGradient id="paint0_linear_557_19841" x1="17.1818" y1="83.2719" x2="48.2565" y2="74.1301" gradientUnits="userSpaceOnUse">
<stop stop-color="#3FA535"/>
<stop offset="1" stop-color="#C8E514"/>
</linearGradient>
<linearGradient id="paint1_linear_557_19841" x1="83.1383" y1="16.9227" x2="80.2176" y2="73.8673" gradientUnits="userSpaceOnUse">
<stop stop-color="#3FA535"/>
<stop offset="1" stop-color="#C8E514"/>
</linearGradient>
<linearGradient id="paint2_linear_557_19841" x1="37.2264" y1="105.192" x2="54.4169" y2="100.135" gradientUnits="userSpaceOnUse">
<stop stop-color="#3FA535"/>
<stop offset="1" stop-color="#C8E514"/>
</linearGradient>
</defs>
</svg>
